<svg width="20" height="20" viewBox="0 0 20 20" fill="none" xmlns="http://www.w3.org/2000/svg">
<g clip-path="url(#clip0_1_5303)">
<path d="M17.7516 15.307C17.4643 15.9708 17.1242 16.5818 16.7301 17.1436C16.193 17.9094 15.7532 18.4395 15.4142 18.7339C14.8888 19.2171 14.3259 19.4645 13.7231 19.4786C13.2903 19.4786 12.7684 19.3555 12.1609 19.1057C11.5514 18.857 10.9913 18.7339 10.4791 18.7339C9.94195 18.7339 9.36587 18.857 8.74968 19.1057C8.13256 19.3555 7.6354 19.4857 7.2553 19.4986C6.67722 19.5232 6.10103 19.2687 5.52589 18.7339C5.1588 18.4137 4.69965 17.8648 4.1496 17.0873C3.55945 16.2569 3.07426 15.2941 2.69415 14.1963C2.28708 13.0106 2.08301 11.8624 2.08301 10.7508C2.08301 9.47753 2.35815 8.37932 2.90925 7.45902C3.34236 6.7198 3.91856 6.13668 4.63972 5.70861C5.36087 5.28054 6.14008 5.06239 6.97922 5.04844C7.43837 5.04844 8.04049 5.19046 8.78874 5.46959C9.53487 5.74966 10.014 5.89168 10.224 5.89168C10.3811 5.89168 10.9133 5.72561 11.8155 5.39453C12.6687 5.08749 13.3888 4.96036 13.9787 5.01044C15.5773 5.13945 16.7782 5.76959 17.5769 6.90487C16.1473 7.7711 15.4401 8.98437 15.4541 10.5408C15.467 11.7531 15.9068 12.762 16.7712 13.563C17.1629 13.9348 17.6004 14.2221 18.0871 14.4262C17.9815 14.7323 17.8701 15.0255 17.7516 15.307ZM14.0855 0.880291C14.0855 1.83051 13.7383 2.71772 13.0464 3.53892C12.2113 4.51516 11.2013 5.07928 10.106 4.99027C10.0921 4.87627 10.084 4.75629 10.084 4.63022C10.084 3.71801 10.4811 2.74177 11.1863 1.94356C11.5384 1.53941 11.9861 1.20336 12.5292 0.935295C13.071 0.671227 13.5835 0.525191 14.0655 0.500183C14.0796 0.627212 14.0855 0.754249 14.0855 0.880279V0.880291Z" fill="black"/>
</g>
<defs>
<clipPath id="clip0_1_5303">
<rect width="19" height="19" fill="white" transform="translate(0.5 0.5)"/>
</clipPath>
</defs>
</svg>
